<?xml version="1.0" encoding="UTF-8" standalone="no"?><!DOCTYPE svg PUBLIC "-//W3C//DTD SVG 1.1//EN" "http://www.w3.org/Graphics/SVG/1.1/DTD/svg11.dtd"><svg width="100%" height="100%" viewBox="0 0 142 142" version="1.1" xmlns="http://www.w3.org/2000/svg" xmlns:xlink="http://www.w3.org/1999/xlink" xml:space="preserve" style="fill-rule:evenodd;clip-rule:evenodd;stroke-linejoin:round;stroke-miterlimit:1.41421;"><path d="M132.9,12.7l-123.9,0c-2.6,0 -4.6,2.1 -4.6,4.6l0,107.1c0,2.6 2.1,4.6 4.6,4.6l123.9,0c2.6,0 4.6,-2.1 4.6,-4.6l0,-107.1c0,-2.6 -2,-4.6 -4.6,-4.6Zm-119.3,107.1l0,-89.9l114.7,0l0,89.9l-114.7,0l0,0Z" style="fill:#474a56;fill-rule:nonzero;"/><path d="M88.996,85.738l7.259,0l0,-29.034c0,-3.993 -3.266,-7.259 -7.259,-7.259l-29.034,0l0,7.259l29.034,0l0,29.034Zm-36.292,7.258l0,-58.068l-7.259,0l0,14.517l-14.517,0l0,7.259l14.517,0l0,36.292c0,3.993 3.266,7.259 7.259,7.259l36.292,0l0,14.517l7.259,0l0,-14.517l14.517,0l0,-7.259l-58.068,0Z" style="fill:#474a56;fill-rule:nonzero;"/></svg>